<?xml version="1.0" encoding="UTF-8" standalone="no"?>
<!-- Generator: Adobe Illustrator 15.0.0, SVG Export Plug-In . SVG Version: 6.00 Build 0)  -->

<svg
   xmlns:dc="http://purl.org/dc/elements/1.1/"
   xmlns:cc="http://creativecommons.org/ns#"
   xmlns:rdf="http://www.w3.org/1999/02/22-rdf-syntax-ns#"
   xmlns:svg="http://www.w3.org/2000/svg"
   xmlns="http://www.w3.org/2000/svg"
   xmlns:xlink="http://www.w3.org/1999/xlink"
   xmlns:sodipodi="http://sodipodi.sourceforge.net/DTD/sodipodi-0.dtd"
   xmlns:inkscape="http://www.inkscape.org/namespaces/inkscape"
   version="1.1"
   id="Calque_1"
   x="0px"
   y="0px"
   width="595.28px"
   height="841.89px"
   viewBox="0 0 595.28 841.89"
   enable-background="new 0 0 595.28 841.89"
   xml:space="preserve"
   inkscape:version="0.47pre4 r22446"
   sodipodi:docname="premiere.pdf"><metadata
   id="metadata51"><rdf:RDF><cc:Work
       rdf:about=""><dc:format>image/svg+xml</dc:format><dc:type
         rdf:resource="http://purl.org/dc/dcmitype/StillImage" /><dc:title></dc:title></cc:Work></rdf:RDF></metadata><defs
   id="defs49"><inkscape:perspective
   sodipodi:type="inkscape:persp3d"
   inkscape:vp_x="0 : 420.94501 : 1"
   inkscape:vp_y="0 : 1000 : 0"
   inkscape:vp_z="595.28003 : 420.94501 : 1"
   inkscape:persp3d-origin="297.64001 : 280.63 : 1"
   id="perspective53" />
	
		
	
	
	
	
	
	
	
	
	
	
	
	
<inkscape:perspective
   id="perspective3805"
   inkscape:persp3d-origin="0.5 : 0.33333333 : 1"
   inkscape:vp_z="1 : 0.5 : 1"
   inkscape:vp_y="0 : 1000 : 0"
   inkscape:vp_x="0 : 0.5 : 1"
   sodipodi:type="inkscape:persp3d" /><clipPath
   clipPathUnits="userSpaceOnUse"
   id="clipPath3757"><path
     d="M 0,1395.73 0,0 l 2608.2,0 0,1395.73 -2608.2,0 z"
     id="path3759" /></clipPath><inkscape:perspective
   id="perspective3042"
   inkscape:persp3d-origin="0.5 : 0.33333333 : 1"
   inkscape:vp_z="1 : 0.5 : 1"
   inkscape:vp_y="0 : 1000 : 0"
   inkscape:vp_x="0 : 0.5 : 1"
   sodipodi:type="inkscape:persp3d" /></defs><sodipodi:namedview
   pagecolor="#ffffff"
   bordercolor="#666666"
   borderopacity="1"
   objecttolerance="10"
   gridtolerance="10"
   guidetolerance="10"
   inkscape:pageopacity="0"
   inkscape:pageshadow="2"
   inkscape:window-width="1280"
   inkscape:window-height="1003"
   id="namedview47"
   showgrid="true"
   inkscape:zoom="0.79286936"
   inkscape:cx="279.61416"
   inkscape:cy="765.77711"
   inkscape:window-x="1440"
   inkscape:window-y="0"
   inkscape:window-maximized="1"
   inkscape:current-layer="Calque_1"
   inkscape:snap-grids="true"
   borderlayer="true"><inkscape:grid
     type="xygrid"
     id="grid3885"
     empspacing="5"
     visible="true"
     enabled="true"
     snapvisiblegridlinesonly="true" /></sodipodi:namedview>
<rect
   width="595.28"
   height="841.89"
   id="rect3"
   fill="#FFFFFF" />
<polygon
   fill="#474294"
   points="595.28,841.89 0,841.89 0,716.584 595.28,344.903 "
   id="polygon5"
   style="fill:#3b5a98;fill-opacity:1" />
<rect
   style="fill:none"
   id="rect9"
   height="67.611549"
   width="487.39514"
   transform="matrix(0.84804325,-0.52992702,0.52992702,0.84804325,0,0)"
   y="559.04706"
   x="-185.34906" /><g
   id="g3644"><path
     d="m 143.848,569.349 11.479,-7.173 c 4.393,-2.744 8.371,-3.862 11.937,-3.354 3.565,0.508 6.409,2.461 8.533,5.86 2.149,3.438 2.673,6.897 1.571,10.376 -1.101,3.48 -3.928,6.642 -8.479,9.485 l -7.961,4.975 12.166,19.469 -3.22,2.012 -26.026,-41.65 z m 4.896,0.671 10.508,16.816 7.751,-4.845 c 3.478,-2.173 5.663,-4.561 6.552,-7.162 0.891,-2.601 0.496,-5.243 -1.18,-7.927 -1.603,-2.563 -3.76,-4.049 -6.473,-4.453 -2.713,-0.404 -5.72,0.424 -9.02,2.484 l -8.138,5.087 z"
     id="path11"
     style="fill:#3b5a98;fill-opacity:1" /><path
     d="m 198.366,554.31 c 3.976,-2.483 8.141,-3.194 12.495,-2.129 4.355,1.065 7.807,3.636 10.352,7.71 2.534,4.055 3.322,8.268 2.364,12.639 -0.958,4.371 -3.425,7.799 -7.4,10.283 -3.975,2.484 -8.147,3.205 -12.516,2.161 -4.369,-1.042 -7.82,-3.591 -10.354,-7.646 -2.545,-4.074 -3.332,-8.309 -2.361,-12.703 0.972,-4.393 3.445,-7.831 7.42,-10.315 z m 16.023,25.639 c 3.08,-1.925 4.98,-4.61 5.7,-8.06 0.72,-3.448 0.062,-6.802 -1.976,-10.062 -2.025,-3.24 -4.76,-5.304 -8.202,-6.193 -3.443,-0.889 -6.696,-0.375 -9.757,1.537 -3.1,1.938 -5.012,4.639 -5.735,8.103 -0.723,3.464 -0.06,6.837 1.989,10.116 2.037,3.26 4.768,5.318 8.191,6.178 3.425,0.86 6.688,0.319 9.79,-1.619 z"
     id="path13"
     style="fill:#3b5a98;fill-opacity:1" /><path
     d="m 219.683,521.961 26.026,41.65 -2.951,1.846 -26.027,-41.65 2.952,-1.846 z"
     id="path15"
     style="fill:#3b5a98;fill-opacity:1" /><path
     d="m 264.191,513.924 5.386,54.299 -2.995,1.871 -2.514,-25.366 -25.367,-14.876 3.066,-1.916 21.918,12.934 -2.486,-25.076 2.992,-1.87 z"
     id="path17"
     style="fill:#3b5a98;fill-opacity:1" /><path
     d="m 311.522,464.574 26.026,41.65 -2.951,1.844 -1.342,-2.146 c -1.387,3.354 -3.531,5.938 -6.433,7.75 -3.896,2.436 -8.04,3.111 -12.435,2.028 -4.393,-1.083 -7.844,-3.631 -10.354,-7.646 -2.545,-4.074 -3.348,-8.287 -2.402,-12.635 0.945,-4.35 3.404,-7.766 7.38,-10.25 2.524,-1.577 5.687,-2.531 9.488,-2.861 l -9.931,-15.891 2.954,-1.843 z m 20.057,38.664 -11.066,-17.709 c -3.691,-0.07 -6.89,0.74 -9.593,2.429 -3.16,1.975 -5.109,4.65 -5.846,8.026 -0.736,3.377 -0.087,6.693 1.95,9.953 2.074,3.32 4.894,5.399 8.459,6.239 3.565,0.841 6.987,0.235 10.267,-1.813 2.545,-1.59 4.486,-3.965 5.829,-7.125 z"
     id="path19"
     style="fill:#3b5a98;fill-opacity:1" /><path
     d="m 328.645,453.709 2.906,4.65 c 2.262,3.618 2.69,7.247 1.289,10.885 l -1.323,-2.116 c 0.097,-1.745 -0.519,-3.683 -1.848,-5.81 l -1.282,0.801 -3.707,-5.934 3.965,-2.476 z"
     id="path21"
     style="fill:#3b5a98;fill-opacity:1" /><path
     d="m 345.439,443.38 3.13,5.009 -2.952,1.845 -3.129,-5.009 2.951,-1.845 z m 8.887,14.222 17.14,27.429 -2.952,1.845 -17.139,-27.43 2.951,-1.844 z"
     id="path23"
     style="fill:#3b5a98;fill-opacity:1" /><path
     d="m 371.402,446.931 2.981,4.771 0.12,-0.074 c 0.074,-4.967 1.98,-8.617 5.717,-10.953 3.101,-1.938 6.197,-2.489 9.287,-1.656 3.09,0.832 5.734,3.008 7.933,6.525 l 10.452,16.727 -2.922,1.825 -9.763,-15.622 c -3.95,-6.321 -8.409,-7.93 -13.378,-4.824 -3.637,2.273 -5.405,6.1 -5.305,11.48 l 12.018,19.23 -2.922,1.826 -17.14,-27.43 2.922,-1.825 z"
     id="path25"
     style="fill:#3b5a98;fill-opacity:1" /><path
     d="m 404.205,413.79 5.682,9.093 7.693,-4.807 1.49,2.385 -7.693,4.806 10.191,16.309 c 1.639,2.624 2.931,4.215 3.873,4.772 0.943,0.558 2.349,0.253 4.217,-0.915 1.432,-0.895 2.821,-2.385 4.17,-4.471 l 1.752,2.803 c -1.344,2.139 -2.94,3.785 -4.789,4.94 -1.809,1.13 -3.643,1.558 -5.5,1.282 -1.859,-0.276 -3.359,-1.328 -4.502,-3.158 l -12.334,-19.736 -7.393,4.62 -1.49,-2.386 7.393,-4.619 -4.08,-6.53 0.396,-3.812 0.924,-0.576 z"
     id="path27"
     style="fill:#3b5a98;fill-opacity:1" /><path
     d="m 460.363,409.002 -21.615,13.507 c 0.238,0.515 0.506,1.011 0.805,1.487 1.912,3.061 4.627,4.972 8.142,5.732 3.515,0.76 6.764,0.209 9.745,-1.654 3.479,-2.174 6.026,-5.658 7.645,-10.456 l 2.067,3.31 c -1.624,4.388 -4.386,7.798 -8.281,10.232 -3.955,2.472 -8.082,3.143 -12.38,2.016 -4.298,-1.129 -7.77,-3.811 -10.415,-8.043 -2.509,-4.015 -3.394,-8.084 -2.653,-12.209 0.738,-4.124 2.918,-7.316 6.535,-9.577 3.398,-2.124 7.014,-2.73 10.842,-1.821 3.829,0.91 7.016,3.402 9.563,7.476 z m -18.705,-25.29 -3.33,15.305 -2.027,1.267 0.408,-13.479 4.949,-3.093 z m -3.995,36.2 17.769,-11.104 c -4.373,-4.701 -8.936,-5.567 -13.687,-2.599 -2.246,1.403 -3.751,3.318 -4.515,5.744 -0.764,2.426 -0.62,5.079 0.433,7.959 z"
     id="path29"
     style="fill:#3b5a98;fill-opacity:1" /><path
     d="m 482.018,358.036 3.131,5.009 -2.952,1.844 -3.13,-5.009 2.951,-1.844 z m 8.886,14.221 17.141,27.429 -2.952,1.844 -17.14,-27.429 2.951,-1.844 z"
     id="path31"
     style="fill:#3b5a98;fill-opacity:1" /><path
     d="m 513.053,339.515 1.713,2.743 c -2.402,0.534 -4.27,1.217 -5.602,2.049 -4.432,2.77 -4.878,6.987 -1.338,12.651 l 2.123,3.399 5.307,-3.316 1.49,2.385 -5.307,3.316 15.65,25.044 -2.922,1.826 -15.65,-25.044 -5.068,3.167 -1.49,-2.385 5.068,-3.167 -2.812,-4.502 c -1.975,-3.16 -2.617,-6.234 -1.928,-9.221 0.689,-2.987 2.366,-5.313 5.029,-6.978 1.452,-0.907 3.364,-1.563 5.737,-1.967 z"
     id="path33"
     style="fill:#3b5a98;fill-opacity:1" /></g>
<g
   id="g35">
	<polygon
   fill="none"
   points="654.107,396.551 502.502,491.283 462.779,427.709 614.378,332.979  "
   id="polygon37" />
	<path
   fill="#FFFFFF"
   d="M480.04,441.525l7.818-4.885l1.773,2.838l-12.996,8.119l-0.128-0.205l0.325-2.228   c0.437-3.597,0.705-6.586,0.806-8.965c0.101-2.38,0.059-4.104-0.126-5.175c-0.186-1.07-0.537-2.021-1.059-2.854   c-0.723-1.156-1.631-1.881-2.725-2.171c-1.096-0.29-2.187-0.097-3.274,0.583c-0.823,0.516-1.482,1.265-1.978,2.249   c-0.496,0.983-0.787,2.116-0.873,3.396l-2.332-3.732c0.782-2.302,2.021-3.982,3.717-5.042c1.794-1.12,3.645-1.446,5.553-0.976   c1.909,0.47,3.438,1.626,4.59,3.469c0.516,0.823,0.92,1.793,1.216,2.91c0.296,1.115,0.458,2.514,0.485,4.193   s-0.182,4.123-0.628,7.332L480.04,441.525z"
   id="path39" />
	<path
   fill="#FFFFFF"
   d="M488.317,411.377c1.881-1.176,4.054-1.161,6.518,0.045s4.645,3.329,6.543,6.366   c1.947,3.116,2.916,6.034,2.904,8.752s-0.997,4.691-2.957,5.916c-1.989,1.243-4.184,1.285-6.583,0.127   c-2.399-1.156-4.585-3.314-6.558-6.47c-1.947-3.116-2.909-6.041-2.886-8.773C485.321,414.608,486.327,412.62,488.317,411.377z    M490.092,414.151l-0.147,0.092c-1.127,0.705-1.588,1.957-1.383,3.757c0.205,1.8,1.049,3.885,2.531,6.257   c1.518,2.431,3.032,4.135,4.543,5.112c1.51,0.978,2.834,1.111,3.971,0.4c1.137-0.71,1.602-1.961,1.395-3.753   s-1.051-3.874-2.533-6.246c-1.488-2.381-2.988-4.081-4.503-5.097C492.451,413.658,491.159,413.484,490.092,414.151z"
   id="path41" />
	<path
   fill="#FFFFFF"
   d="M504.987,401.327l2.94-1.837l12.833,20.536l-2.94,1.837L504.987,401.327z"
   id="path43" />
	<path
   fill="#FFFFFF"
   d="M525.347,388.238c1.882-1.176,4.055-1.161,6.519,0.046c2.464,1.206,4.645,3.329,6.543,6.366   c1.947,3.116,2.915,6.034,2.904,8.752s-0.997,4.691-2.957,5.916c-1.989,1.243-4.184,1.286-6.583,0.128s-4.586-3.314-6.558-6.47   c-1.947-3.116-2.909-6.042-2.886-8.774C522.351,391.469,523.357,389.481,525.347,388.238z M527.122,391.012l-0.147,0.092   c-1.127,0.704-1.587,1.957-1.383,3.757c0.205,1.8,1.049,3.886,2.53,6.257c1.52,2.431,3.033,4.134,4.544,5.112   c1.51,0.978,2.833,1.111,3.97,0.4c1.137-0.71,1.603-1.961,1.396-3.753c-0.208-1.792-1.053-3.875-2.535-6.246   c-1.487-2.381-2.988-4.08-4.502-5.097C529.481,390.519,528.189,390.345,527.122,391.012z"
   id="path45" />
</g>
<g
   id="g3751"
   transform="matrix(0.05718077,0,0,-0.05718077,429.0128,96.766168)"><g
     id="g3753"><g
       id="g3755"
       clip-path="url(#clipPath3757)"><path
         d="m 1339.22,1338.66 c 44,-74.1 20.99,-180.07 -31,-244.63 -40.5,-53.33 -101.5,-87.58 -166,-70.39 -51,14.45 -85.5,67.25 -89.5,118.66 -8.5,95.83 34.5,190.21 120.5,236.97 38.5,21.78 98,23.5 133,-4.28 13,-9.24 25,-22.49 33,-36.33"
         style="fill:#46505c;fill-opacity:1;fill-rule:nonzero;stroke:none"
         id="path3761" /><path
         d="m 832.219,1162.29 c 36,-43.26 25.5,-114.97 1.504,-161.47 -23.004,-45.965 -69.504,-88.414 -123.504,-84.019 -22,3.547 -42.5,17.629 -53.996,37.394 -32.004,69.845 -3.504,148.925 48.996,202.005 24,21.49 53.504,36.09 88,30.3 15,-4.2 28.5,-11.92 39,-24.21"
         style="fill:#46505c;fill-opacity:1;fill-rule:nonzero;stroke:none"
         id="path3763" /><path
         d="m 158.723,1068.02 c 12.5,-16.24 16.996,-38.65 12.996,-61.23 -7.996,-36.161 -34.5,-72.208 -70.496,-85.438 -25.0042,-10.016 -58.5042,-11.2 -79.0042,7.878 -17.50005,13.645 -23.50005,34.524 -22.00005,57.555 3.5,44.065 37.50005,83.765 78.50005,99.605 28.0002,9.07 61.5002,5.75 80.0042,-18.37"
         style="fill:#46505c;fill-opacity:1;fill-rule:nonzero;stroke:none"
         id="path3765" /><path
         d="m 622.219,1035.56 c 5,-6.9 -1.5,-15.59 -0.996,-22.58 l -48.004,-197.984 -5,-2.543 -165.5,0 -3,4.996 50.5,210.531 c 1.004,3.53 2.5,6.99 7,7.58 56.504,-0.34 110.75,0.84 165,0"
         style="fill:#46505c;fill-opacity:1;fill-rule:nonzero;stroke:none"
         id="path3767" /><path
         d="m 945.719,462.117 121.251,518.102 179.5,0 -122.75,-522.766 -179.126,0 1.125,4.664"
         style="fill:#1a3571;fill-opacity:1;fill-rule:nonzero;stroke:none"
         id="path3769" /><path
         d="m 1585.21,776.691 2.5,-0.953 3.51,9.074 46,191.942 5,2.535 140.49,0 2.01,-3.519 -119.75,-519.387 -136.75,0 c -2.5,0.453 -4.5,3.047 -4,6.062 25.99,119.032 -13.5,237.723 -116.51,301.117 -6.49,2.868 -5.99,-5.624 -8.49,-9.175 l -70.94,-297.645 -150.87,0 119.31,519.551 c 5.99,4.121 15.99,2.824 23,1.469 114,-12.672 226.5,-89.371 265.49,-201.071"
         style="fill:#1a3571;fill-opacity:1;fill-rule:nonzero;stroke:none"
         id="path3771" /><path
         d="m 2148.22,940.203 5,-5.898 c -6,-36.621 -16.5,-71.34 -25,-106.508 -1.5,-3.531 -5,-1.609 -7,-0.149 -26.5,24.457 -59.5,51.79 -97,34.52 -12,-7.746 -19.01,-20.387 -18,-34.871 5.5,-29.383 33,-48.824 51,-71.953 48.5,-45.512 80.49,-111.856 57,-181.336 -19.01,-70.387 -93.5,-113.914 -160,-128.77 -85,-15.238 -170.5,0.512 -233,53.231 l -4,4.922 c 10.49,52.714 22.99,103.968 35.49,155.226 1.51,2.528 4.51,2.594 6.01,0.617 28,-41.922 71.49,-83.035 125.5,-79.433 29,1.597 57.5,20.176 67,47.375 13.99,61.285 -46.5,91.547 -76.01,136.445 -26.99,34.449 -38.99,85.199 -21.99,129.047 19.49,56.898 78,91.098 135,97.766 61.5,3.754 113,-18.692 160,-50.231"
         style="fill:#1a3571;fill-opacity:1;fill-rule:nonzero;stroke:none"
         id="path3773" /><path
         d="m 367.219,929.789 c -14.5,-63.801 -27.5,-128.062 -44,-191.402 -1.5,-5.532 -6.996,-4.645 -11,-5.723 L 168.723,732.23 c -8.004,-1.168 -6.004,8.372 -4.504,12.407 l 44,184.898 5.504,3.113 150.496,0.579 3,-3.438"
         style="fill:#46505c;fill-opacity:1;fill-rule:nonzero;stroke:none"
         id="path3775" /><path
         d="M 906.223,892.742 C 889.219,809.895 869.219,725.551 849.219,643.641 l -5,-3.102 -196,-0.008 c -4.496,1.41 -14.496,-1.793 -12.5,7.246 l 9,42.188 46.504,200.449 c 2.996,5.059 8.496,0.734 12.996,2.328 l 199,0.504 3.004,-0.504"
         style="fill:#46505c;fill-opacity:1;fill-rule:nonzero;stroke:none"
         id="path3777" /><path
         d="m 2382.71,834.496 c -6.99,1.859 -16.49,6.164 -22.5,1.543 l -34.87,-152.141 c 0,0 87.37,0.676 127.88,0 l 3,1.106 c 7.5,24.148 8.5,54.672 1,79.016 -11,32.277 -41.5,61.652 -74.51,70.476 z m 152.01,63.109 c 62,-58.234 90,-148.16 63.5,-234.203 l -50.25,-207.222 -140.88,0 20.88,98.593 -133.62,-0.421 -24.25,-97.43 -153.01,0 120.62,518.109 4.51,4.094 c 112,8.289 214.5,-11.613 292.5,-81.52"
         style="fill:#1a3571;fill-opacity:1;fill-rule:nonzero;stroke:none"
         id="path3779" /><path
         d="m 570.719,705.945 c 35,-38.785 26.5,-104.957 5,-148.394 -26.5,-60.043 -86.996,-114.281 -148.5,-133.539 -35.996,-9.235 -78.496,-8.106 -105,19.355 -37.5,34.235 -29.5,98.399 -13.496,141.227 29.496,73.601 102.996,147.101 186.996,150.82 29.5,0.606 56.5,-7.344 75,-29.469"
         style="fill:#46505c;fill-opacity:1;fill-rule:nonzero;stroke:none"
         id="path3781" /><path
         d="m 939.719,603.992 c -20.5,-90.918 -40.5,-181.824 -61.5,-272.254 l -4.496,-4.379 -175,0 c -2.5,0.45 -4.504,2.121 -4.504,4.11 l 60,271.23 c 1.5,3.031 5,4.153 8,4.711 l 176,0 1.5,-3.418"
         style="fill:#46505c;fill-opacity:1;fill-rule:nonzero;stroke:none"
         id="path3783" /><path
         d="m 560.219,362.73 c 21.5,-30.558 20,-81.589 3.504,-114.921 -23.504,-49.489 -73.504,-94.008 -129.004,-98.137 -39,-3.801 -75,14.957 -92.5,48.598 -22,45.058 -5.5,100.39 23,138.48 33.504,42.18 82,68.176 136.5,62.285 22.5,-4.547 43.5,-16.613 58.5,-36.305"
         style="fill:#46505c;fill-opacity:1;fill-rule:nonzero;stroke:none"
         id="path3785" /><path
         d="M 338.723,162.199 C 357.719,141.09 358.219,108.102 347.719,82.3906 328.723,36 282.219,0.0507812 230.719,0 c -23.5,0.0195312 -44.496,9.58984 -58.5,29.3008 -16.5,25.6601 -10.5,63.7773 4.5,88.5902 25,43.007 72.004,73.468 123.5,65.531 14,-3.723 27.5,-8.942 38.504,-21.223"
         style="fill:#46505c;fill-opacity:1;fill-rule:nonzero;stroke:none"
         id="path3787" /><path
         d="m 1676.45,200.73 69.08,0 -5.46,-25.628 -99.12,0 29.82,140.078 30.03,0 -24.35,-114.45"
         style="fill:#46505c;fill-opacity:1;fill-rule:nonzero;stroke:none"
         id="path3789" /><path
         d="m 1932.91,228.23 -11.13,-53.128 -30.24,0 11.55,54.386 -34.02,85.692 31.71,0 14.29,-41.16 0.62,-2.098 c 1.89,-6.094 0.63,-2.102 3.78,-11.774 1.48,-4.41 1.26,-3.57 2.1,-6.296 1.68,2.937 1.68,2.937 5.88,9.039 3.58,5.461 5.88,8.82 6.72,9.871 l 31.08,42.418 36.54,0 -68.88,-86.95"
         style="fill:#46505c;fill-opacity:1;fill-rule:nonzero;stroke:none"
         id="path3791" /><path
         d="m 2130.94,233.48 c 0,-23.089 12.18,-36.949 32.55,-36.949 25.61,0 45.14,26.457 45.14,61.098 0,22.473 -11.97,35.922 -32.13,35.922 -26.46,0 -45.56,-25.199 -45.56,-60.071 z m 108.77,24.782 c 0,-22.473 -7.77,-45.141 -20.79,-61.102 -14.07,-17.23 -32.55,-25.41 -56.91,-25.41 -38.22,0 -61.1,23.309 -61.1,62.57 0,49.352 32.33,84.219 77.91,84.219 37.59,0 60.89,-23.098 60.89,-60.277"
         style="fill:#46505c;fill-opacity:1;fill-rule:nonzero;stroke:none"
         id="path3793" /><path
         d="m 2479.95,175.102 -30.45,0 -29.4,74.347 c -2.32,5.871 -1.89,4.403 -7.78,22.473 -0.2,0.418 -0.83,2.098 -1.67,4.406 -1.05,-9.449 -3.15,-21.637 -5.88,-35.066 l -14.08,-66.16 -28.97,0 29.81,140.078 31.09,0 28.77,-73.918 c 1.05,-2.524 4.63,-12.403 6.93,-19.114 1.05,-3.148 1.26,-4.199 2.52,-8.187 1.26,10.078 4.62,29.82 6.72,39.891 l 13.02,61.328 28.98,0 -29.61,-140.078"
         style="fill:#46505c;fill-opacity:1;fill-rule:nonzero;stroke:none"
         id="path3795" /></g></g></g><image
   xlink:href="file:///home/paul/incoming%20firefox/logo_aedi.png"
   width="90"
   height="120"
   id="image3032"
   x="19.99999"
   y="21.890015" /></svg>